<?xml version="1.0" encoding="UTF-8" standalone="no"?><!DOCTYPE svg PUBLIC "-//W3C//DTD SVG 1.1//EN" "http://www.w3.org/Graphics/SVG/1.1/DTD/svg11.dtd"><svg width="100%" height="100%" viewBox="0 0 385 72" version="1.1" xmlns="http://www.w3.org/2000/svg" xmlns:xlink="http://www.w3.org/1999/xlink" xml:space="preserve" xmlns:serif="http://www.serif.com/" style="fill-rule:evenodd;clip-rule:evenodd;stroke-linejoin:round;stroke-miterlimit:1.41421;"><g><text x="9.967px" y="50.885px" style="font-family:'ArialMT', 'Arial', sans-serif;font-size:51.412px;fill:#fff;">optimus</text><path d="M197.701,45.607l-0.974,-0.749l-1.263,-3.863l0.35,-3.911l1.597,-2.939l0.852,0.04l0.283,0.091l-0.845,11.331Z" style="fill:#fff;"/><path d="M204.463,41.945l2.028,2.028l0,8.428l4.533,1.458l0,-12.61l-6.561,0.696Z" style="fill:#fff;"/><path d="M205.214,36.498l-1.115,0.576l0.649,0.933l3.588,0.789l0.547,-0.861l-0.43,-0.697l-3.239,-0.74Z" style="fill:#fff;"/><path d="M203.11,22.508l0.141,19.539l2.353,2.291l0.148,7.773l-7.767,-5.286l2.137,-28.684l0.791,12.114l2.197,-7.747Z" style="fill:#fff;"/><path d="M208.883,33.524l0.982,-10.339l1.159,-0.042l0,12.351l-2.141,-1.97Z" style="fill:#fff;"/><path d="M209.201,24.226l-5.592,2.892l0.055,6.304l4.704,0.119l0.833,-9.315Z" style="fill:#fff;"/><path d="M203.794,33.936l0.018,1.558l7.212,1.66l0,-0.984l-2.617,-2.125l-4.613,-0.109Z" style="fill:#fff;"/><path d="M203.609,39.966l0.854,-1.355l4.738,0.903l-0.318,1.539l-3.535,0.404l0.041,-0.603l-1.78,-0.888Z" style="fill:#fff;"/><path d="M209.201,37.154l0.752,1.235l-0.383,2.676l1.454,-0.174l0,-3.244l-1.823,-0.493Z" style="fill:#fff;"/><path d="M224.664,45.607l0.974,-0.749l1.263,-3.863l-0.35,-3.911l-1.597,-2.939l-0.852,0.04l-0.282,0.091l0.844,11.331Z" style="fill:#fff;"/><path d="M217.902,41.945l-2.028,2.028l0,8.428l-4.532,1.458l0,-12.61l6.56,0.696Z" style="fill:#fff;"/><path d="M217.152,36.498l1.114,0.576l-0.649,0.933l-3.587,0.789l-0.548,-0.861l0.431,-0.697l3.239,-0.74Z" style="fill:#fff;"/><path d="M219.255,22.508l-0.141,19.539l-2.353,2.291l-0.148,7.773l7.767,-5.286l-2.137,-28.684l-0.79,12.114l-2.198,-7.747Z" style="fill:#fff;"/><path d="M213.482,33.524l-0.982,-10.339l-1.158,-0.042l0,12.351l2.14,-1.97Z" style="fill:#fff;"/><path d="M213.164,24.226l5.592,2.892l-0.055,6.304l-4.704,0.119l-0.833,-9.315Z" style="fill:#fff;"/><path d="M218.572,33.936l-0.019,1.558l-7.211,1.66l0,-0.984l2.616,-2.125l4.614,-0.109Z" style="fill:#fff;"/><path d="M218.756,39.966l-0.854,-1.355l-4.738,0.903l0.318,1.539l3.535,0.404l-0.04,-0.603l1.779,-0.888Z" style="fill:#fff;"/><path d="M213.164,37.154l-0.752,1.235l0.383,2.676l-1.453,-0.174l0,-3.244l1.822,-0.493Z" style="fill:#fff;"/></g></svg>