<?xml version="1.0" encoding="UTF-8" standalone="no"?><!DOCTYPE svg PUBLIC "-//W3C//DTD SVG 1.1//EN" "http://www.w3.org/Graphics/SVG/1.1/DTD/svg11.dtd"><svg width="100%" height="100%" viewBox="0 0 260 262" version="1.1" xmlns="http://www.w3.org/2000/svg" xmlns:xlink="http://www.w3.org/1999/xlink" xml:space="preserve" xmlns:serif="http://www.serif.com/" style="fill-rule:evenodd;clip-rule:evenodd;stroke-linejoin:round;stroke-miterlimit:1.41421;"><path d="M45.777,187.718l-6.195,-4.767l-8.039,-24.573l2.227,-24.883l10.162,-18.693l5.418,0.251l1.799,0.581l-5.372,72.084Z" style="fill:#fff;"/><path d="M88.798,164.42l12.9,12.9l0,53.62l28.834,9.274l0,-80.22l-41.734,4.426Z" style="fill:#fff;"/><path d="M93.569,129.768l-7.091,3.666l4.128,5.934l22.825,5.02l3.483,-5.478l-2.739,-4.434l-20.606,-4.708Z" style="fill:#fff;"/><path d="M80.188,40.769l0.899,124.304l14.964,14.57l0.943,49.452l-49.413,-33.629l13.599,-182.48l5.028,77.066l13.98,-49.283Z" style="fill:#fff;"/><path d="M116.914,110.847l6.246,-65.773l7.372,-0.269l0,78.576l-13.618,-12.534Z" style="fill:#fff;"/><path d="M118.937,51.696l-35.573,18.402l0.347,40.104l29.928,0.755l5.298,-59.261Z" style="fill:#fff;"/><path d="M84.536,113.472l0.115,9.909l45.881,10.561l0,-6.26l-16.647,-13.52l-29.349,-0.69Z" style="fill:#fff;"/><path d="M83.364,151.834l5.434,-8.623l30.139,5.744l-2.023,9.792l-22.489,2.569l0.258,-3.836l-11.319,-5.646Z" style="fill:#fff;"/><path d="M118.937,133.942l4.786,7.855l-2.44,17.028l9.249,-1.108l0,-20.639l-11.595,-3.136Z" style="fill:#fff;"/><path d="M217.309,187.718l6.195,-4.767l8.039,-24.573l-2.227,-24.883l-10.162,-18.693l-5.418,0.251l-1.799,0.581l5.372,72.084Z" style="fill:#fff;"/><path d="M174.288,164.42l-12.9,12.9l0,53.62l-28.833,9.274l0,-80.22l41.733,4.426Z" style="fill:#fff;"/><path d="M169.517,129.768l7.091,3.666l-4.128,5.934l-22.825,5.02l-3.483,-5.478l2.739,-4.434l20.606,-4.708Z" style="fill:#fff;"/><path d="M182.898,40.769l-0.899,124.304l-14.964,14.57l-0.943,49.452l49.413,-33.629l-13.598,-182.48l-5.029,77.066l-13.98,-49.283Z" style="fill:#fff;"/><path d="M146.172,110.847l-6.246,-65.773l-7.371,-0.269l0,78.576l13.617,-12.534Z" style="fill:#fff;"/><path d="M144.149,51.696l35.573,18.402l-0.347,40.104l-29.928,0.755l-5.298,-59.261Z" style="fill:#fff;"/><path d="M178.55,113.472l-0.115,9.909l-45.88,10.561l0,-6.26l16.646,-13.52l29.349,-0.69Z" style="fill:#fff;"/><path d="M179.722,151.834l-5.434,-8.623l-30.139,5.744l2.023,9.792l22.489,2.569l-0.258,-3.836l11.319,-5.646Z" style="fill:#fff;"/><path d="M144.149,133.942l-4.786,7.855l2.44,17.028l-9.248,-1.108l0,-20.639l11.594,-3.136Z" style="fill:#fff;"/></svg>